<svg id="Layer_1" data-name="Layer 1" xmlns="http://www.w3.org/2000/svg" viewBox="0 0 100 100"><defs><style>.cls-1,.cls-2,.cls-3{fill:none;stroke:#fff;}.cls-1{stroke-linecap:round;}.cls-1,.cls-3{stroke-linejoin:round;}.cls-1,.cls-2{stroke-width:6px;}.cls-2{stroke-miterlimit:10;}.cls-3{stroke-width:5px;}</style></defs><path class="cls-1" d="M57,25.93l.05-.05,8.8-8.62a7.19,7.19,0,1,1,9.59-1.47,7.19,7.19,0,1,1-.58,10.68,6.78,6.78,0,0,1-1-1.21l-7.46,7.3"/><path class="cls-2" d="M75.25,54.31A31.15,31.15,0,0,1,62.38,79.54V95.91H25.74V79.54a31.18,31.18,0,0,1,34-52.19,31.25,31.25,0,0,1,15.52,27Z"/><line class="cls-3" x1="34.91" y1="95.92" x2="34.91" y2="79.91"/><line class="cls-3" x1="44.31" y1="95.92" x2="44.31" y2="79.91"/><line class="cls-3" x1="53.7" y1="95.92" x2="53.7" y2="79.91"/><line class="cls-1" x1="29.49" y1="53.39" x2="40.33" y2="64.23"/><line class="cls-1" x1="40.33" y1="53.39" x2="29.49" y2="64.23"/><line class="cls-1" x1="48.28" y1="53.39" x2="59.13" y2="64.23"/><line class="cls-1" x1="59.13" y1="53.39" x2="48.28" y2="64.23"/></svg>