<svg id="Layer_1" data-name="Layer 1" xmlns="http://www.w3.org/2000/svg" viewBox="0 0 100 100"><defs><style>.cls-1{fill:none;stroke:#fff;stroke-linecap:round;stroke-linejoin:round;stroke-width:6px;}.cls-2{fill:#fff;}</style></defs><path class="cls-1" d="M85.84,42.43A36.81,36.81,0,0,1,57.31,78.31L54.26,83.6,49,92.7l-5.27-9.1-3.05-5.29A36.84,36.84,0,1,1,85.84,42.43Z"/><path class="cls-2" d="M49.29,34.07h-.57a2.93,2.93,0,0,1-2.93-2.92h0a2.93,2.93,0,0,1,2.93-2.93h.57a2.93,2.93,0,0,1,2.93,2.93h0A2.93,2.93,0,0,1,49.29,34.07ZM48.72,37h.57a2.93,2.93,0,0,1,2.93,2.92V58.31a2.93,2.93,0,0,1-2.93,2.92h-.57a2.93,2.93,0,0,1-2.93-2.92V39.89A2.93,2.93,0,0,1,48.72,37Z"/></svg>