<svg id="Layer_1" data-name="Layer 1" xmlns="http://www.w3.org/2000/svg" viewBox="0 0 100 100"><defs><style>.cls-1{fill:none;stroke:#fff;stroke-linecap:round;stroke-linejoin:round;stroke-width:6px;}</style></defs><circle class="cls-1" cx="50" cy="50" r="14.08"/><path class="cls-1" d="M82.9,17.38l-3.63-3.64a4.33,4.33,0,0,0-6.11,0l-6.79,6.79A33.35,33.35,0,0,0,58.76,17V8.25H41.24v8A33.37,33.37,0,0,0,30.5,20.75l-7-7a4.33,4.33,0,0,0-6.11,0l-3.64,3.64a4.33,4.33,0,0,0,0,6.11l6.91,6.91a33.43,33.43,0,0,0-4.76,10.84H8.25V58.76h8.12A34.15,34.15,0,0,0,20,66.87l-6.29,6.29a4.33,4.33,0,0,0,0,6.11l3.64,3.63a4.32,4.32,0,0,0,6.11,0l6.08-6.08a33.35,33.35,0,0,0,11.67,5.11v9.82H58.76V81.19a33.47,33.47,0,0,0,8.55-4.13l5.85,5.84a4.32,4.32,0,0,0,6.11,0l3.63-3.63a4.32,4.32,0,0,0,0-6.11l-5.94-6a33.47,33.47,0,0,0,3.89-8.45h10.9V41.24H81.33a33.52,33.52,0,0,0-5-11.18l6.56-6.57A4.32,4.32,0,0,0,82.9,17.38Z"/></svg>