<svg id="Layer_1" data-name="Layer 1" xmlns="http://www.w3.org/2000/svg" viewBox="0 0 100 100"><defs><style>.cls-1{fill:none;stroke:#fff;stroke-linecap:round;stroke-linejoin:round;stroke-width:6px;}.cls-2{fill:#fff;}</style></defs><path class="cls-1" d="M40.18,41.5l.33,13.72-27,24.88.78-8.2a18.79,18.79,0,0,1,6-12.06Z"/><path class="cls-1" d="M82.11,39.75A13.62,13.62,0,0,1,62.87,39,13.42,13.42,0,0,1,61,36.35L50.6,45.92,50.27,32.2,62.46,21,65,18.64a3.53,3.53,0,0,1,.34-.24A13.62,13.62,0,0,1,82.11,39.75Z"/><path class="cls-1" d="M65.32,18.4a3.53,3.53,0,0,0-.34.24l.3-.28Z"/><path class="cls-1" d="M65,18.64,62.46,21a12.7,12.7,0,0,1,1.19-1.25A13.25,13.25,0,0,1,65,18.64Z"/><path class="cls-1" d="M49.89,16a3,3,0,0,0-.07-.45h.06Z"/><path class="cls-1" d="M47.81,86.75l-6.35,8.92-1-40.45L40.18,41.5l-.24-10.36a13.42,13.42,0,0,1-3.19.46,13.62,13.62,0,1,1,13.07-16,3,3,0,0,1,.07.45L50,19.35l.3,12.85.33,13.72.69,29.46A18.81,18.81,0,0,1,47.81,86.75Z"/><path class="cls-1" d="M50,19.35,49.89,16A13,13,0,0,1,50,17.66,11.88,11.88,0,0,1,50,19.35Z"/><circle class="cls-2" cx="35.69" cy="18" r="5.19"/><circle class="cls-2" cx="72.77" cy="29.9" r="5.19"/></svg>