<svg id="Layer_1" data-name="Layer 1" xmlns="http://www.w3.org/2000/svg" viewBox="0 0 100 100"><defs><style>.cls-1{fill:none;stroke:#fff;stroke-linecap:round;stroke-linejoin:round;stroke-width:6px;}</style></defs><path class="cls-1" d="M41.54,22.31H35.46V16.23a7.6,7.6,0,0,0-15.2,0v6.08H14.18a7.6,7.6,0,0,0,0,15.19h6.08v6.08a7.6,7.6,0,0,0,15.2,0V37.5h6.08a7.6,7.6,0,0,0,0-15.19Z"/><path class="cls-1" d="M84.57,59.51H77.5V52.43a8.84,8.84,0,0,0-17.68,0v7.08H52.75a8.84,8.84,0,1,0,0,17.67h7.07v7.08a8.84,8.84,0,0,0,17.68,0V77.18h7.07a8.84,8.84,0,1,0,0-17.67Z"/><line class="cls-1" x1="68.66" y1="6.9" x2="68.66" y2="26.21"/><line class="cls-1" x1="78.32" y1="16.56" x2="59.01" y2="16.56"/></svg>