<svg id="Layer_1" data-name="Layer 1" xmlns="http://www.w3.org/2000/svg" viewBox="0 0 100 100"><defs><style>.cls-1,.cls-2{fill:none;stroke:#fff;stroke-width:6px;}.cls-1{stroke-miterlimit:10;}.cls-2{stroke-linecap:round;stroke-linejoin:round;}</style></defs><path class="cls-1" d="M48.83,28.6h-31a3.18,3.18,0,0,1-3.17-2.86l-1.2-11.89H86.22L85,25.74a3.18,3.18,0,0,1-3.17,2.86h-33Z"/><path class="cls-2" d="M83.84,85.34a9.22,9.22,0,0,1-9.22,9.22H25a9.21,9.21,0,0,1-9.22-9.22Z"/><path class="cls-2" d="M81.84,28.6,79.17,64a26,26,0,0,1-14.29,21.3H34.79A25.93,25.93,0,0,1,20.49,64L17.82,28.6Z"/><path class="cls-1" d="M46.1,76.85h0a15.79,15.79,0,0,1-15.74-14.6l-1.51-20"/></svg>