<svg id="Layer_1" data-name="Layer 1" xmlns="http://www.w3.org/2000/svg" viewBox="0 0 100 100"><defs><style>.cls-1{fill:none;stroke:#fff;stroke-linecap:round;stroke-linejoin:round;stroke-width:6px;}</style></defs><path class="cls-1" d="M85.61,14.05a30.2,30.2,0,0,0-42.7,0c-10.21,10.21-18.59,35.87-14.37,49l-9.09,9.28a8.6,8.6,0,0,0-.94-1.17,7.59,7.59,0,1,0-.61,11.28,7.58,7.58,0,1,0,11.26-.61,8.68,8.68,0,0,0-1.27-1L37,71.5c13.32,3.8,38.56-4.69,48.62-14.74A30.21,30.21,0,0,0,85.61,14.05Z"/><path class="cls-1" d="M51.58,63.8A15.57,15.57,0,0,1,36,48.3"/><line class="cls-1" x1="37.09" y1="54.05" x2="28.54" y2="63.06"/><polyline class="cls-1" points="45.49 62.58 37.02 71.52 37.01 71.53 36.99 71.52"/></svg>