<svg id="Layer_1" data-name="Layer 1" xmlns="http://www.w3.org/2000/svg" viewBox="0 0 100 100"><defs><style>.cls-1{fill:none;stroke:#fff;stroke-linecap:round;stroke-linejoin:round;stroke-width:6px;}</style></defs><path class="cls-1" d="M10.32,23.64c18-17.95,47.3-17.74,65.54.5s18.45,47.59.5,65.54Z"/><path class="cls-1" d="M24.49,29.29a32.69,32.69,0,0,1,12.34-5.16,5.1,5.1,0,0,1,6,5.06v27l-19-19A5.12,5.12,0,0,1,24.49,29.29Z"/><path class="cls-1" d="M48.78,24a32.53,32.53,0,0,1,12.89,5.25,5.13,5.13,0,0,1,.7,7.85L43.09,56.41l-.26-.25V29.09A5.11,5.11,0,0,1,48.78,24Z"/><path class="cls-1" d="M43.09,56.41,62.37,37.13a5.12,5.12,0,0,1,7.84.69,32.67,32.67,0,0,1,5.26,12.89,5.12,5.12,0,0,1-5.07,5.95H43.34Z"/><path class="cls-1" d="M43.34,56.66h27a5.1,5.1,0,0,1,5,6A32.44,32.44,0,0,1,70.2,75a5.11,5.11,0,0,1-7.83.68Z"/><path class="cls-1" d="M29.79,67.29a7.5,7.5,0,1,1-15,0c0-4.14,7.5-20.24,7.5-20.24S29.79,63.15,29.79,67.29Z"/></svg>