<?xml version="1.0" encoding="utf-8"?>
<!-- Generator: Adobe Illustrator 22.0.0, SVG Export Plug-In . SVG Version: 6.00 Build 0)  -->
<svg version="1.1" id="Layer_1" xmlns="http://www.w3.org/2000/svg" xmlns:xlink="http://www.w3.org/1999/xlink" x="0px" y="0px"
	 viewBox="0 0 100 100" style="enable-background:new 0 0 100 100;" xml:space="preserve">
<style type="text/css">
	.st0{fill:#7D3F97;}
</style>
<g>
	<path class="st0" d="M53.4,76.8h37.2c0.3,0,0.6-0.3,0.6-0.6V39.3c0-0.3-0.3-0.6-0.6-0.6H53.4c-0.3,0-0.6,0.3-0.6,0.6v36.9
		C52.8,76.6,53.1,76.8,53.4,76.8z M55.3,75.6l5.2-3.5h23.1l5.2,3.5H55.3z M62.8,55.3c0.3,0,0.6-0.3,0.6-0.6v-2.5
		c1.3,0.5,2.2,2.4,2.7,4.1c0.7,2.1,1,4.3,1.1,4.6c0,1.3-1.1,2.3-2.4,2.3h-4.1c-1.3,0-2.4-1-2.4-2.3c0.5-3.1,1.9-8,3.8-8.7v2.6
		C62.2,55,62.5,55.3,62.8,55.3z M68.5,60.7c0-0.1-0.2-1.8-0.8-3.7h18.7l-0.9,6.2h-18C68.1,62.5,68.5,61.7,68.5,60.7
		C68.5,60.7,68.5,60.7,68.5,60.7z M73.1,55.4c0,0.1,0,0.2,0,0.3h-2.8c0,0,0,0,0,0c-0.8-0.8-1.3-1.8-1.3-3c0-2.2,1.8-4,4-4
		c1.4,0,2.7,0.7,3.4,1.9C74.5,51.4,73.1,53.2,73.1,55.4z M78.4,51.4c2.2,0,4,1.8,4,4c0,0.1,0,0.2,0,0.3h-8c0-0.1,0-0.2,0-0.3
		C74.3,53.2,76.1,51.4,78.4,51.4z M83.5,64.4v6.5H60.7v-6.5H83.5z M90,75l-5.2-3.6v-7H90V75z M84.7,39.9H90v23.2h-3.2l0.9-6.7
		c0-0.2,0-0.4-0.1-0.5c-0.1-0.1-0.3-0.2-0.5-0.2h-2.4V39.9z M60.7,39.9h22.8v14.5c-0.5-2.4-2.6-4.2-5.2-4.2c-0.3,0-0.5,0-0.7,0.1
		c-0.9-1.7-2.7-2.8-4.6-2.8c-2.9,0-5.3,2.3-5.3,5.2c0,1.1,0.3,2.1,0.9,3h-1.4c-1-2.9-2.3-4.5-3.9-4.9v-1.2c0.3,0.1,0.7,0.3,1.1,0.3
		c0.3,0,0.6,0,1-0.2c2.1-0.6,3.3-1.5,3.4-1.6c0.2-0.1,0.3-0.3,0.3-0.5c0-0.2-0.1-0.4-0.3-0.5c-0.1,0-1.5-1-3.4-1.5
		c-0.9-0.3-1.8-0.2-2.5,0.3c-0.6,0.4-0.9,1.1-0.9,1.7c0,0.1,0,0.1,0,0.2c0,0,0,0.1,0,0.1v2.8c-0.6,0.1-1.1,0.4-1.5,0.8V39.9z
		 M63.4,47.8c0-0.2,0.1-0.6,0.4-0.8c0.2-0.1,0.4-0.2,0.7-0.2c0.2,0,0.4,0,0.6,0.1c0.9,0.3,1.6,0.6,2.2,0.9c-0.5,0.3-1.3,0.6-2.2,0.9
		c-0.6,0.2-1.1,0.1-1.4-0.1C63.6,48.3,63.4,48,63.4,47.8z M54,39.9h5.4v13.3c-1.5,2.7-2.2,6.7-2.3,7.4c0,0,0,0.1,0,0.1
		c0,0.9,0.4,1.8,0.9,2.4H54V39.9z M54,64.4h5.4v6.9L54,75V64.4z"/>
	<path class="st0" d="M89.6,17.9H54.4c-3.9,0-7,3.1-7,6.9v12.4c-1.2-1.9-3.4-3-5.9-3H10.4c-3.9,0-7,3.1-7,6.9v34
		c0,3.8,3.1,6.9,7,6.9h31.1c2.8,0,5.2-1.6,6.4-4h0.4c1.2,2.2,3.5,3.5,6.2,3.5h35.2c3.9,0,7-3.1,7-6.9V24.8
		C96.6,21,93.5,17.9,89.6,17.9z M41.5,80.9H10.4c-3.2,0-5.8-2.6-5.8-5.7v-34c0-3.2,2.6-5.7,5.8-5.7h31.1c2.1,0,3.9,0.9,4.9,2.5h-0.2
		c-0.3,0-0.6,0.3-0.6,0.6v39c0,0.3,0.3,0.6,0.6,0.6h0.3C45.4,79.8,43.6,80.9,41.5,80.9z M48.9,76.9h-2.2V39.1h2.2V76.9z M95.4,74.6
		c0,3.2-2.6,5.7-5.8,5.7H54.4c-2,0-3.7-0.8-4.7-2.3c0.3,0,0.5-0.3,0.5-0.6v-39c0-0.3-0.3-0.6-0.6-0.6h-0.9v-2.5h46.8V74.6z
		 M95.4,34.3H48.6v-9.4c0-3.2,2.6-5.7,5.8-5.7h35.2c3.2,0,5.8,2.6,5.8,5.7V34.3z"/>
	<path class="st0" d="M88.8,24c-1.4,0-2.6,1.1-2.6,2.5c0,1.4,1.2,2.5,2.6,2.5c1.4,0,2.6-1.1,2.6-2.5C91.4,25.1,90.3,24,88.8,24z
		 M88.8,27.8c-0.7,0-1.3-0.6-1.3-1.3c0-0.7,0.6-1.3,1.3-1.3c0.7,0,1.3,0.6,1.3,1.3C90.2,27.2,89.6,27.8,88.8,27.8z"/>
	<path class="st0" d="M27.4,57.8l-18,17.9c-0.2,0.2-0.2,0.6,0,0.9c0.1,0.1,0.3,0.2,0.4,0.2c0.2,0,0.3-0.1,0.4-0.2l18-17.9
		c0.2-0.2,0.2-0.6,0-0.9C28,57.6,27.6,57.6,27.4,57.8z"/>
	<path class="st0" d="M24.9,67.3l-8.4,8.4c-0.2,0.2-0.2,0.6,0,0.9c0.1,0.1,0.3,0.2,0.4,0.2c0.2,0,0.3-0.1,0.4-0.2l8.4-8.4
		c0.2-0.2,0.2-0.6,0-0.9C25.6,67.1,25.2,67.1,24.9,67.3z"/>
</g>
</svg>
