<?xml version="1.0" encoding="utf-8"?>
<!-- Generator: Adobe Illustrator 22.0.0, SVG Export Plug-In . SVG Version: 6.00 Build 0)  -->
<svg version="1.1" id="Layer_1" xmlns="http://www.w3.org/2000/svg" xmlns:xlink="http://www.w3.org/1999/xlink" x="0px" y="0px"
	 viewBox="0 0 100 100" style="enable-background:new 0 0 100 100;" xml:space="preserve">
<style type="text/css">
	.st0{fill:#7D3F97;}
</style>
<g>
	<path class="st0" d="M87.5,19.9h-75c-4.1,0-7.5,3.3-7.5,7.5v45.2c0,4.1,3.3,7.5,7.5,7.5h75c4.1,0,7.5-3.3,7.5-7.5V27.4
		C94.9,23.3,91.6,19.9,87.5,19.9z M93.6,72.6c0,3.4-2.8,6.2-6.2,6.2h-75c-3.4,0-6.2-2.8-6.2-6.2V27.4c0-3.4,2.8-6.2,6.2-6.2h75
		c3.4,0,6.2,2.8,6.2,6.2V72.6z"/>
	<path class="st0" d="M88.2,26.9H71c-0.4,0-0.7,0.3-0.7,0.7v44.9c0,0.4,0.3,0.7,0.7,0.7h17.2c0.4,0,0.7-0.3,0.7-0.7V27.5
		C88.9,27.2,88.6,26.9,88.2,26.9z M87.6,71.8H71.6V28.2h15.9V71.8z"/>
	<path class="st0" d="M79.6,58.5c-2.8,0-5,2.2-5,5c0,2.8,2.2,5,5,5c2.8,0,5-2.2,5-5C84.6,60.8,82.3,58.5,79.6,58.5z M78.9,67.1
		c-1.7-0.3-3-1.8-3-3.6c0-1.8,1.3-3.3,3-3.6V67.1z M80.2,67.1v-7.3c1.7,0.3,3,1.8,3,3.6C83.3,65.3,82,66.8,80.2,67.1z"/>
	<path class="st0" d="M74.2,40.4h10.4c0.4,0,0.7-0.3,0.7-0.7v-3.5c0-0.4-0.3-0.7-0.7-0.7H74.2c-0.4,0-0.7,0.3-0.7,0.7v3.5
		C73.5,40.1,73.8,40.4,74.2,40.4z M74.8,36.9H84v2.2h-9.1V36.9z"/>
	<path class="st0" d="M74.2,46.8h10.4c0.4,0,0.7-0.3,0.7-0.7v-3.5c0-0.4-0.3-0.7-0.7-0.7H74.2c-0.4,0-0.7,0.3-0.7,0.7v3.5
		C73.5,46.5,73.8,46.8,74.2,46.8z M74.8,43.3H84v2.2h-9.1V43.3z"/>
	<path class="st0" d="M32.4,50.2c0.2,0,0.3-0.1,0.5-0.2c0.4-0.4,0.8-0.4,1.5-0.3c0.8,0.1,1.7,0.2,2.6-0.7c0.9-0.9,0.8-1.8,0.7-2.6
		c-0.1-0.7-0.1-1.1,0.3-1.5c0.4-0.4,0.8-0.4,1.5-0.3c0.8,0.1,1.7,0.2,2.6-0.7c0.3-0.3,0.3-0.7,0-0.9c-0.3-0.3-0.7-0.3-0.9,0
		c-0.4,0.4-0.8,0.4-1.5,0.3c-0.8-0.1-1.7-0.2-2.6,0.7c-0.9,0.9-0.8,1.8-0.7,2.6c0.1,0.7,0.1,1.1-0.3,1.5c-0.4,0.4-0.8,0.4-1.5,0.3
		c-0.8-0.1-1.7-0.2-2.6,0.7c-0.3,0.3-0.3,0.7,0,0.9C32.1,50.2,32.3,50.2,32.4,50.2z"/>
	<path class="st0" d="M40.6,48.5c0.1,0.1,0.3,0.2,0.5,0.2c0.2,0,0.3-0.1,0.5-0.2c0.4-0.4,0.8-0.4,1.5-0.3c0.8,0.1,1.7,0.2,2.6-0.7
		c0.9-0.9,0.8-1.8,0.7-2.6c-0.1-0.7-0.1-1.1,0.3-1.5c0.4-0.4,0.8-0.4,1.5-0.3c0.8,0.1,1.7,0.2,2.6-0.7c0.3-0.3,0.3-0.7,0-0.9
		c-0.3-0.3-0.7-0.3-0.9,0c-0.4,0.4-0.8,0.4-1.5,0.3c-0.8-0.1-1.7-0.2-2.6,0.7c-0.9,0.9-0.8,1.8-0.7,2.6c0.1,0.7,0.1,1.1-0.3,1.5
		c-0.4,0.4-0.8,0.4-1.5,0.3c-0.8-0.1-1.7-0.2-2.6,0.7C40.3,47.8,40.3,48.3,40.6,48.5z"/>
	<path class="st0" d="M54.7,51.9H24.1c-1.5,0-2.8,1.3-2.8,2.8c0,1.5,1.3,2.8,2.8,2.8h1.6c0,0.1,0.1,0.1,0.2,0.2
		c3.1,1.9,4.6,3.5,4.6,3.5c0.1,0.1,0.3,0.2,0.5,0.2h16.9c0.2,0,0.4-0.1,0.5-0.2c0,0,1.5-1.6,4.6-3.5c0.1,0,0.1-0.1,0.2-0.2h1.6
		c1.5,0,2.8-1.3,2.8-2.8C57.5,53.2,56.2,51.9,54.7,51.9z M47.6,60.1H31.2c-0.4-0.4-1.5-1.4-3.2-2.6h22.8
		C49.1,58.7,48,59.7,47.6,60.1z M54.7,56.2H24.1c-0.8,0-1.5-0.7-1.5-1.5c0-0.8,0.7-1.5,1.5-1.5h30.6c0.8,0,1.5,0.7,1.5,1.5
		C56.2,55.6,55.5,56.2,54.7,56.2z"/>
	<path class="st0" d="M17.1,67.8h44.6c0.4,0,0.7-0.3,0.7-0.7V32.9c0-0.4-0.3-0.7-0.7-0.7H17.1c-0.4,0-0.7,0.3-0.7,0.7v34.3
		C16.5,67.5,16.8,67.8,17.1,67.8z M17.8,33.5H61v33H17.8V33.5z"/>
	<path class="st0" d="M67,26.9H11.8c-0.4,0-0.7,0.3-0.7,0.7v44.9c0,0.4,0.3,0.7,0.7,0.7H67c0.4,0,0.7-0.3,0.7-0.7V27.5
		C67.7,27.2,67.4,26.9,67,26.9z M66.3,71.8H12.5V28.2h53.9V71.8z"/>
</g>
</svg>
