<?xml version="1.0" encoding="utf-8"?>
<!-- Generator: Adobe Illustrator 22.0.0, SVG Export Plug-In . SVG Version: 6.00 Build 0)  -->
<svg version="1.1" id="Layer_1" xmlns="http://www.w3.org/2000/svg" xmlns:xlink="http://www.w3.org/1999/xlink" x="0px" y="0px"
	 viewBox="0 0 100 100" style="enable-background:new 0 0 100 100;" xml:space="preserve">
<style type="text/css">
	.st0{fill:#7D3F97;}
</style>
<g>
	<path class="st0" d="M81.2,86.5H67.8l0.2-1.2h9.1c0.3,0,0.6-0.2,0.6-0.6V65.1c0-0.3-0.2-0.6-0.6-0.6h-8.9c-0.1,0-0.1,0-0.2,0
		c-0.1,0-0.1,0-0.2,0c0,0,0,0,0,0l-14.5,0.7c-1.1,0-2,0.7-2,1.7v0.8c0,0.9,0.9,1.6,2,1.7l14.5,0.7c0,0,0,0,0,0
		c0.8,0,1.4-0.3,1.8-0.9h3.1v11.7H68c0,0,0,0-0.1,0c0,0,0,0,0,0h-5.6c0-0.6-0.3-1.2-0.8-1.5c0.1-0.1,0.2-0.2,0.3-0.3
		c0.4-0.5,0.6-1.3,0.4-2.3c-0.3-1.9-1.4-4.7-1.5-4.8c-0.1-0.2-0.3-0.3-0.5-0.3c-0.2,0-0.4,0.1-0.5,0.4c0,0.1-1.1,2.8-1.5,4.8
		c-0.2,1-0.1,1.7,0.4,2.3c0.1,0.1,0.2,0.2,0.3,0.3c-0.5,0.4-0.8,0.9-0.8,1.5h-5c0-0.6-0.3-1.2-0.8-1.5c0.1-0.1,0.2-0.2,0.3-0.3
		c0.4-0.5,0.6-1.3,0.4-2.3c-0.3-1.9-1.4-4.7-1.5-4.8c-0.1-0.2-0.3-0.3-0.5-0.3c-0.2,0-0.4,0.1-0.5,0.4c0,0.1-1.1,2.8-1.5,4.8
		c-0.2,1-0.1,1.7,0.4,2.3c0.1,0.1,0.2,0.2,0.3,0.3c-0.5,0.4-0.8,0.9-0.8,1.5h-5c0-0.6-0.3-1.2-0.8-1.5c0.1-0.1,0.2-0.2,0.3-0.3
		c0.4-0.5,0.6-1.3,0.4-2.3c-0.3-1.9-1.4-4.7-1.5-4.8c-0.1-0.2-0.3-0.3-0.5-0.3c-0.2,0-0.4,0.1-0.5,0.4c0,0.1-1.1,2.8-1.5,4.8
		c-0.2,1-0.1,1.7,0.4,2.3c0.1,0.1,0.2,0.2,0.3,0.3c-0.5,0.4-0.8,0.9-0.8,1.5h-7.3c0,0,0,0,0,0c0,0,0,0-0.1,0H28V69.2h3.1
		c0.3,0.5,1,0.9,1.8,0.9c0,0,0,0,0,0l14.5-0.7c1.1,0,2-0.7,2-1.7v-0.8c0-0.9-0.9-1.6-2-1.7L33,64.6c0,0,0,0,0,0c-0.1,0-0.1,0-0.2,0
		c-0.1,0-0.1,0-0.2,0h-8.9c-0.3,0-0.6,0.2-0.6,0.6v19.6c0,0.3,0.2,0.6,0.6,0.6h9.1l0.2,1.2H18.8c-1.5,0-2.8,1.2-2.8,2.8
		c0,1.5,1.2,2.8,2.8,2.8h62.4c1.5,0,2.8-1.2,2.8-2.8C84,87.7,82.7,86.5,81.2,86.5z M68.7,68.4c0,0.3-0.4,0.5-0.9,0.5l-14.5-0.7
		c0,0,0,0,0,0c-0.5,0-0.9-0.3-0.9-0.5v-0.8c0-0.3,0.4-0.5,0.9-0.5c0,0,0,0,0,0l14.5-0.7c0.5,0,0.9,0.3,0.9,0.5V68.4z M68.4,82h4.8
		c0.3,0,0.6-0.2,0.6-0.6V68.6c0-0.3-0.2-0.6-0.6-0.6h-3.4v-1.8c0-0.2,0-0.4-0.1-0.6h6.8v18.5h-8.4L68.4,82z M32,66.3
		c0-0.3,0.4-0.5,0.9-0.5l14.5,0.7c0,0,0,0,0,0c0.5,0,0.9,0.3,0.9,0.5v0.8c0,0.3-0.4,0.5-0.9,0.5c0,0,0,0,0,0L32.9,69
		c-0.5,0-0.9-0.3-0.9-0.5V66.3z M24.2,84.2V65.7h6.8c-0.1,0.2-0.1,0.4-0.1,0.6v1.8h-3.4c-0.3,0-0.6,0.2-0.6,0.6v12.8
		c0,0.3,0.2,0.6,0.6,0.6h4.8l0.3,2.2H24.2z M59.4,77c0.2-1,0.6-2.2,0.9-3.2c0.3,0.9,0.7,2.2,0.9,3.2c0.1,0.7,0,1.1-0.2,1.4
		c-0.2,0.2-0.5,0.3-0.7,0.3c-0.1,0-0.5,0-0.7-0.3C59.3,78.1,59.3,77.6,59.4,77z M60.3,80.1c0.5,0,0.9,0.4,1,0.8h-1.9
		C59.4,80.4,59.8,80.1,60.3,80.1z M50.3,77c0.2-1,0.6-2.2,0.9-3.2c0.3,0.9,0.7,2.2,0.9,3.2c0.1,0.7,0,1.1-0.2,1.4
		c-0.2,0.2-0.5,0.3-0.7,0.3c-0.1,0-0.5,0-0.7-0.3C50.2,78.1,50.2,77.6,50.3,77z M51.2,80.1c0.5,0,0.9,0.4,1,0.8h-1.9
		C50.3,80.4,50.7,80.1,51.2,80.1z M41.2,77c0.2-1,0.6-2.2,0.9-3.2c0.3,0.9,0.7,2.2,0.9,3.2c0.1,0.7,0,1.1-0.2,1.4
		c-0.2,0.2-0.5,0.3-0.7,0.3c-0.1,0-0.5,0-0.7-0.3C41.2,78.1,41.1,77.6,41.2,77z M42.1,80.1c0.5,0,0.9,0.4,1,0.8h-1.9
		C41.2,80.4,41.6,80.1,42.1,80.1z M67.3,82l-0.6,4.5H34.1L33.4,82H67.3z M81.2,90.9H18.8c-0.9,0-1.7-0.7-1.7-1.7s0.7-1.7,1.7-1.7
		h14.8c0,0,0,0,0,0h33.6c0,0,0,0,0,0h14c0.9,0,1.7,0.7,1.7,1.7S82.1,90.9,81.2,90.9z"/>
	<path class="st0" d="M83.4,29.9h-7v-3.2c1.2,0,2.1-1.1,2.1-2.5c0-1.4-1-2.5-2.2-2.5c0,0,0,0,0-0.1c0-4.5-3.6-8.1-7.9-8.1H54
		c0,0,0,0,0,0c0-0.6-0.2-1.1-0.5-1.5c0.3-0.4,0.5-1,0.5-1.5C54,9.1,52.9,8,51.5,8h-3.1C47.1,8,46,9.1,46,10.4c0,0.6,0.2,1.1,0.5,1.5
		c-0.3,0.4-0.5,1-0.5,1.5c0,0,0,0,0,0H31.6c-4.4,0-7.9,3.6-7.9,8.1c0,0,0,0,0,0.1c-1.2,0-2.2,1.1-2.2,2.5c0,1.3,0.9,2.4,2.1,2.5v3.2
		h-7c-0.3,0-0.6,0.2-0.6,0.6v3.3c0,0.3,0.2,0.6,0.6,0.6h2.1v2.1c0,0.3,0.2,0.6,0.6,0.6h4.3v14.3c0,5,0.1,7.7,1.5,9.1
		c1.5,1.5,4.1,1.6,9,1.6h31.7c4.9,0,7.6-0.1,9-1.6c1.5-1.5,1.5-4.2,1.5-9.1V36.9h4.3c0.3,0,0.6-0.2,0.6-0.6v-2.1h2.1
		c0.3,0,0.6-0.2,0.6-0.6v-3.3C84,30.1,83.8,29.9,83.4,29.9z M23.6,35.8h-3.8v-2.1c0-0.3-0.2-0.6-0.6-0.6h-2.1V31h6.5V35.8z
		 M47.1,13.5c0-0.4,0.2-0.8,0.5-1.1c0.1-0.1,0.2-0.3,0.2-0.4c0-0.2-0.1-0.3-0.2-0.4c-0.3-0.3-0.5-0.7-0.5-1.1c0-0.7,0.6-1.4,1.3-1.4
		h3.1c0.7,0,1.3,0.6,1.3,1.4c0,0.4-0.2,0.8-0.5,1.1c-0.1,0.1-0.2,0.3-0.2,0.4c0,0.2,0.1,0.3,0.2,0.4c0.3,0.3,0.5,0.7,0.5,1.1
		c0,0,0,0,0,0L47.1,13.5C47.1,13.5,47.1,13.5,47.1,13.5z M24.7,21.6c0-3.9,3.1-7,6.8-7h36.9c3.8,0,6.8,3.1,6.8,7c0,0,0,0,0,0.1
		L24.7,21.6C24.7,21.7,24.7,21.7,24.7,21.6z M75.3,51.3c0,4.6-0.1,7.2-1.2,8.4c-1.1,1.1-3.3,1.2-8.2,1.2H34.1
		c-4.9,0-7.1-0.1-8.2-1.2c-1.2-1.2-1.2-3.8-1.2-8.4V26.7h50.6V51.3z M76.3,25.6H23.7c-0.6,0-1.1-0.6-1.1-1.4c0-0.7,0.5-1.4,1.1-1.4
		h52.7c0.6,0,1.1,0.6,1.1,1.4C77.4,24.9,76.9,25.6,76.3,25.6z M82.9,33.2h-2.1c-0.3,0-0.6,0.2-0.6,0.6v2.1h-3.8V31h6.5V33.2z"/>
</g>
</svg>
