<svg id="Layer_1" data-name="Layer 1" xmlns="http://www.w3.org/2000/svg" viewBox="0 0 100 100"><defs><style>.cls-1{fill:#333;}</style></defs><title>iconen-bol</title><path class="cls-1" d="M50,3.54a33.36,33.36,0,0,0-33.3,33.3c0,10,5.28,17.77,10.39,25.29.83,1.22,1.66,2.45,2.45,3.67,3.69,5.64,7.24,11.56,10.67,17.27q2.52,4.23,5.08,8.44L47.46,95a3,3,0,0,0,5.1,0C54.8,91.36,57,87.6,59.18,84c3.62-6.14,7.37-12.48,11.3-18.53,1-1.56,2.08-3.09,3.11-4.58l.74-1.06c4.92-7.1,8.94-13.74,8.94-23h0A33.36,33.36,0,0,0,50,3.54Zm19.4,52.9-.72,1.05c-1.06,1.52-2.15,3.09-3.21,4.72C61.51,68.36,57.7,74.76,54,81c-1.32,2.24-2.67,4.52-4,6.81Q47.65,83.92,45.33,80c-3.46-5.78-7-11.75-10.79-17.49-.81-1.26-1.67-2.5-2.51-3.76C27.23,51.7,22.68,45,22.68,36.84a27.34,27.34,0,0,1,54.67,0C77.35,44.37,73.87,49.94,69.42,56.44Z"/><path class="cls-1" d="M50,18.46A16.87,16.87,0,1,0,62,23.4,16.89,16.89,0,0,0,50,18.46m0,27.83A10.94,10.94,0,1,1,61,35.35,11,11,0,0,1,50,46.29Z"/></svg>