<svg id="Layer_1" data-name="Layer 1" xmlns="http://www.w3.org/2000/svg" viewBox="0 0 100 100"><defs><style>.cls-1{fill:#333;}</style></defs><title>iconen-bol</title><path class="cls-1" d="M17.38,22.17a8.68,8.68,0,0,0-8.64,8.64V69.19a8.68,8.68,0,0,0,8.64,8.64H82.63a8.68,8.68,0,0,0,8.63-8.64V30.81a8.68,8.68,0,0,0-8.63-8.64Zm.71,5.76H81.91l-30,26.15a2.65,2.65,0,0,1-3.72,0Zm-3.6,4.5L34.86,50.12l-20.37,19Zm71,0v36.7l-20.3-19ZM60.83,53.9,80.17,72.07H19.8L39.23,53.93l5.16,4.47a8.65,8.65,0,0,0,11.28,0Z"/></svg>