<svg id="Layer_1" data-name="Layer 1" xmlns="http://www.w3.org/2000/svg" viewBox="0 0 100 100"><defs><style>.cls-1{fill:#333;}</style></defs><title>iconen-bol</title><path class="cls-1" d="M93.29,67.44c-.35,1.71-2.07,2-2.58,2.23H88.14a9,9,0,0,0-8.76-7.22,8.88,8.88,0,0,0-8.77,7.22H31.78A9,9,0,0,0,23,62.45a8.88,8.88,0,0,0-8.77,7.22c-4.64.18-6.35-1-6.87-1.37A1.09,1.09,0,0,1,7,67.61v-11c1.37-5.67,9.45-6,9.61-6,5.84-.35,7.91-1.37,8.59-2.24C37.1,37.89,36.93,38.23,37.1,38.06a16.09,16.09,0,0,1,10.14-5H69.4c10.31,0,12.19,12.71,20.27,17.87a9,9,0,0,1,3.78,4.64V67.44ZM79.2,77.05a5.53,5.53,0,0,1-5.5-5.49,5.65,5.65,0,0,1,5.5-5.49,5.49,5.49,0,0,1,0,11m-56.35,0a5.53,5.53,0,0,1-5.5-5.49,5.64,5.64,0,0,1,5.5-5.49,5.49,5.49,0,0,1,0,11M55.66,23.11H61l.87,6.35H54.8ZM91.41,48c-7.23-4.64-9.63-18.55-22.17-18.55H65.46l-1-8.42a1.84,1.84,0,0,0-1.72-1.54H54.28A1.83,1.83,0,0,0,52.57,21l-1,8.42H47.07a18.83,18.83,0,0,0-12.54,6.18L22.85,45.79h-.17c-.19.17-1.56.86-6.37,1.2-.51,0-11,.36-12.88,8.94v4.13a.39.39,0,0,1-.15,0v3.61h.15V67.1a4.52,4.52,0,0,0,1.2,3.27c1.55,1.88,4.64,2.74,8.94,2.74h.51a9.16,9.16,0,0,0,8.77,7.39,9.2,9.2,0,0,0,8.93-7.39H70.44a9.06,9.06,0,0,0,8.94,7.39,9.21,9.21,0,0,0,8.93-7.39h2.91A6.19,6.19,0,0,0,96.72,68V54.9A12.12,12.12,0,0,0,91.41,48"/><path class="cls-1" d="M70.09,37C38,37.71,48.79,32.73,27,51.8a1.94,1.94,0,0,0-.52,1.89,1.51,1.51,0,0,0,1.55,1H82.64a2.11,2.11,0,0,0,2.24-1.2,1.86,1.86,0,0,0-.35-1.89C78.86,46.3,76.28,37,70.09,37ZM54.63,40.29h1.89v11H32.64C45,40.12,43.29,40.12,54.63,40.29ZM60,51.46v-11H70.09c2.24,0,4.13,2.93,6.36,6.36,1,1.55,2.06,3.1,3.26,4.64Z"/></svg>