<svg id="Layer_1" data-name="Layer 1" xmlns="http://www.w3.org/2000/svg" viewBox="0 0 100 100"><defs><style>.cls-1{fill:#333;}</style></defs><title>iconen-bol</title><path class="cls-1" d="M71.52,82.27a3.62,3.62,0,0,1-3.59,3.59H32.07a3.62,3.62,0,0,1-3.59-3.59V17.73a3.59,3.59,0,0,1,3.59-3.59h7.17a7.16,7.16,0,0,0,7.17,7.16h7.18a7.17,7.17,0,0,0,7.17-7.16h7.17a3.55,3.55,0,0,1,2.53,1,3.59,3.59,0,0,1,1.06,2.55ZM67.93,7H32.07A10.75,10.75,0,0,0,21.31,17.73V82.27A10.75,10.75,0,0,0,32.07,93H67.93A10.75,10.75,0,0,0,78.69,82.27V17.73A10.75,10.75,0,0,0,67.93,7"/><path class="cls-1" d="M53.59,82.27H46.41a3.59,3.59,0,0,1,0-7.17h7.18a3.59,3.59,0,0,1,0,7.17"/></svg>