<svg id="Layer_1" data-name="Layer 1" xmlns="http://www.w3.org/2000/svg" viewBox="0 0 100 100"><defs><style>.cls-1{fill:#333;}</style></defs><title>iconen-bol</title><path class="cls-1" d="M84.65,33.19c-.25,5.11-3.54,8.68-6.19,11.54C76.35,47,74.69,48.82,75,51a12,12,0,0,0,1.2,3.39c1.28,2.7,2.6,5.49-2.65,14.85-5,9-21.91,17.6-35.34,14.91-11.58-2.31-13.44-11.86-13-19.47a23.94,23.94,0,0,1,3.9-10.54A1.93,1.93,0,0,0,26,52a28.53,28.53,0,0,0-3.27,6.64,9.22,9.22,0,0,1-6.11-3.71,7.86,7.86,0,0,1-1-6.33,3.85,3.85,0,0,1,2.82-2.69,3.15,3.15,0,0,1,2,.14,14.4,14.4,0,0,0-1.18,2.14,1.93,1.93,0,1,0,3.53,1.54c.89-2,3.56-5.57,7-6.5a6.67,6.67,0,0,1,5.94,1.34c2.16,1.56,3.55,5,.94,10.13a1.27,1.27,0,0,0-.13.32,18.92,18.92,0,0,0-2.88,7.87c-.41,3.53,1,5.37,2.27,6.28A8.64,8.64,0,0,0,41,70.46c5.68,0,12.8-3.15,14.55-4A1.92,1.92,0,1,0,53.9,63c-5,2.34-13.22,4.82-15.74,3-.23-.17-.94-.68-.7-2.7C38.59,53.64,49.87,47.49,53,46.45c.14.33.27.61.38.81a9.17,9.17,0,0,0,2.06,2.67c-3.58,1.28-7.8,3.2-9.37,5.54a1.92,1.92,0,1,0,3.19,2.15c1.34-2,8.13-4.49,12.51-5.61a1.94,1.94,0,0,0,1.2-.92A1.92,1.92,0,0,0,61.06,48s-2.67.59-4.28-2.5c-1.31-2.5-4.33-12.22-1.93-19.75a13.38,13.38,0,0,1,6.94-8.13c5.79-2.93,11.14-3,15.46-.2C82,20.46,85,26.81,84.65,33.19Zm-5.31-19c-5.45-3.54-12.3-3.55-19.29,0a17.11,17.11,0,0,0-8.87,10.39c-2.07,6.46-.84,13.65.52,18.28a27,27,0,0,0-6,3.08,24.41,24.41,0,0,0-.51-2.52c-.66-2.56-3.31-11.06-10.05-13-10.77-3.09-11-16.18-11.06-16.73a1.93,1.93,0,0,0-3.85,0c0,.17.3,16.51,13.85,20.4,6,1.72,8.28,12.39,7.93,14.48a1.63,1.63,0,0,0-.11.23A9.76,9.76,0,0,0,38,41.39a10.61,10.61,0,0,0-9.22-1.93A13.67,13.67,0,0,0,22.91,43a6.71,6.71,0,0,0-5.42-.87,7.76,7.76,0,0,0-5.61,5.39A11.69,11.69,0,0,0,13.43,57a12.72,12.72,0,0,0,8.3,5.29,17.19,17.19,0,0,0-.29,2.13c-.82,12.92,4.88,21.27,16,23.5a30.43,30.43,0,0,0,6,.57c13.76,0,28.46-8.43,33.48-17.37,5.77-10.27,4.67-14.41,2.78-18.4a8.92,8.92,0,0,1-.87-2.27c.07-.55,1.45-2,2.45-3.12,2.91-3.15,6.89-7.46,7.21-14C88.87,25.68,85.19,18,79.34,14.15Z"/></svg>